<svg xmlns="http://www.w3.org/2000/svg" width="24" height="24" viewBox="0 0 24 24">
  <path fill="#E17726" d="M21.01 5L12.99 1.04L12 1l-.99.04L3.99 5l-1 8.94 1.68 1.4L6 19.5l6 2.5 6-2.5 1.33-4.16 1.68-1.4-1-8.94z"/>
  <path fill="#E27625" d="M3.94 14.95l-1.05-8.5 7.11-3.22v11.72zm17.17-8.5l-1.05 8.5-6.06 0V3.23zm-9.07 11.9l2.96 2.12 5.46-1.13-1.07 3.21L13 24l-6-2.48-1.07-3.21 5.46 1.13 2.96-2.12z"/>
  <path fill="#D5BFB2" d="M10.04 14.95l-.99 1.44-5.11.08 1.1-3.27zm3.92 0l4 1.52 1.1 3.27-5.11-.08z"/>
  <path fill="#233447" d="M13.96 14.95l1.06 1.78-3.17 1.22-1.94-1.22z"/>
  <path fill="#CC6228" d="M10.04 14.95l4.05.34.91-2.86-1.95-.68z"/>
  <path fill="#E27525" d="M9 10.32l.9 3.3-3.01-1.52zm6.1 1.78l-3.01 1.52.9-3.3z"/>
  <path fill="#F5841F" d="M9.9 13.62l-1.85 1.33-1.01-3.16zm5.2 1.33l-1.85-1.33 2.87-1.83z"/>
</svg>