<svg xmlns="http://www.w3.org/2000/svg" width="24" height="24" viewBox="0 0 24 24">
  <path fill="#3B99FC" d="M8.84 11.26c1.74-1.71 4.58-1.71 6.32 0l.21.21c.1.09.1.24 0 .33l-.7.7a.12.12 0 0 1-.17 0l-.29-.29a3.15 3.15 0 0 0-4.42 0l-.3.3a.12.12 0 0 1-.17 0l-.71-.7a.24.24 0 0 1 0-.34l.23-.21zm7.82 1.42l.63.63c.1.09.1.24 0 .33l-2.86 2.78a.24.24 0 0 1-.33 0l-2.02-1.97a.06.06 0 0 0-.09 0l-2.02 1.97a.24.24 0 0 1-.33 0L6.7 13.64a.23.23 0 0 1 0-.33l.63-.63a.24.24 0 0 1 .33 0l2.02 1.97a.06.06 0 0 0 .09 0l2.02-1.97a.24.24 0 0 1 .33 0l2.02 1.97a.06.06 0 0 0 .09 0l2.02-1.97c.1-.09.25-.09.33 0z"/>
  <path fill="#3B99FC" d="M12 2a10 10 0 1 1 0 20 10 10 0 0 1 0-20zm0 2a8 8 0 1 0 0 16 8 8 0 0 0 0-16z"/>
</svg>